<svg xmlns="http://www.w3.org/2000/svg" xmlns:xlink="http://www.w3.org/1999/xlink" version="1.1" width="256" height="256" viewBox="0 0 256 256" xml:space="preserve">
  <g transform="translate(128 128) scale(0.72 0.72)" style="">
	<g style="stroke: none; stroke-width: 0; stroke-dasharray: none; stroke-linecap: butt; stroke-linejoin: miter; stroke-miterlimit: 10; opacity: 1;" transform="translate(-175.05 -175.05000000000004) scale(3.89 3.89)" >
	<path d="M 87.879 52.68 l -6.81 -4.034 c -0.075 -0.044 -0.091 -0.146 -0.081 -0.222 c 0.374 -3.037 0.368 -6.116 -0.017 -9.15 c -0.007 -0.054 0.007 -0.106 0.032 -0.12 l 6.868 -3.965 c 1.941 -1.121 2.607 -3.614 1.485 -5.558 L 80.49 14.272 c -0.543 -0.941 -1.419 -1.615 -2.465 -1.898 c -1.05 -0.284 -2.149 -0.14 -3.09 0.404 l -6.867 3.965 c -0.029 0.013 -0.077 0.002 -0.122 -0.032 c -2.432 -1.849 -5.096 -3.393 -7.917 -4.589 c -0.069 -0.03 -0.151 -0.095 -0.152 -0.182 l -0.089 -7.913 C 59.762 1.806 57.936 0 55.716 0 H 35.444 c -1.098 0 -2.127 0.429 -2.898 1.208 c -0.769 0.777 -1.185 1.808 -1.174 2.902 l 0.088 7.867 c 0 0.03 -0.037 0.067 -0.088 0.088 c -1.432 0.6 -2.842 1.299 -4.187 2.077 c -1.348 0.777 -2.658 1.648 -3.894 2.588 c -0.044 0.033 -0.096 0.048 -0.12 0.033 l -6.77 -4.01 c -0.941 -0.558 -2.041 -0.713 -3.099 -0.435 c -1.06 0.278 -1.947 0.955 -2.496 1.906 L 0.67 31.781 c -1.11 1.922 -0.459 4.407 1.451 5.538 l 6.809 4.033 c 0.075 0.044 0.091 0.148 0.082 0.224 c -0.374 3.039 -0.369 6.118 0.017 9.15 c 0.007 0.054 -0.008 0.106 -0.032 0.12 l -6.869 3.965 c -0.943 0.545 -1.617 1.424 -1.896 2.475 c -0.278 1.048 -0.132 2.143 0.411 3.083 l 8.867 15.36 c 1.123 1.943 3.615 2.615 5.556 1.492 l 6.869 -3.965 c 0.025 -0.013 0.077 -0.001 0.119 0.031 c 2.433 1.851 5.097 3.395 7.917 4.59 c 0.07 0.03 0.151 0.096 0.152 0.183 l 0.089 7.913 C 30.237 88.194 32.063 90 34.283 90 h 20.273 c 1.099 0 2.129 -0.43 2.9 -1.209 c 0.768 -0.778 1.184 -1.809 1.171 -2.901 l -0.088 -7.867 c 0 -0.03 0.037 -0.067 0.086 -0.089 c 1.427 -0.596 2.836 -1.295 4.189 -2.077 c 1.342 -0.774 2.652 -1.644 3.893 -2.588 c 0.038 -0.028 0.09 -0.048 0.122 -0.032 l 6.769 4.011 c 0.943 0.557 2.044 0.712 3.101 0.434 c 1.059 -0.278 1.945 -0.954 2.495 -1.905 L 89.33 58.218 C 90.439 56.295 89.788 53.811 87.879 52.68 z M 52.262 57.578 c -2.281 1.317 -4.775 1.942 -7.237 1.942 c -5.023 0 -9.915 -2.604 -12.602 -7.258 c -1.94 -3.36 -2.455 -7.274 -1.451 -11.02 c 1.004 -3.747 3.407 -6.879 6.767 -8.819 c 3.36 -1.939 7.274 -2.455 11.02 -1.451 c 3.747 1.004 6.879 3.407 8.819 6.767 C 61.581 44.674 59.197 53.573 52.262 57.578 z" style="stroke: none; stroke-width: 1; stroke-dasharray: none; stroke-linecap: butt; stroke-linejoin: miter; stroke-miterlimit: 10; opacity: 1;" transform=" matrix(1 0 0 1 0 0) " stroke-linecap="round" />
</g>
</g>
</svg>
